<?xml version="1.0" encoding="utf-8"?>
<!-- Generator: Adobe Illustrator 24.1.3, SVG Export Plug-In . SVG Version: 6.00 Build 0)  -->
<svg version="1.1" id="Capa_1" xmlns="http://www.w3.org/2000/svg" xmlns:xlink="http://www.w3.org/1999/xlink" x="0px" y="0px"
	 viewBox="0 0 67.7 67.7" style="enable-background:new 0 0 67.7 67.7;" xml:space="preserve">
<style type="text/css">
	.st0{fill:#F3D01D;}
</style>
<g>
	<path class="st0" d="M52.9,23.3H42.8v6h10.1c3,0,5.3,1.5,5.3,2.9v26.6c0,1.3-2.3,2.9-5.3,2.9H14.7c-3,0-5.3-1.5-5.3-2.9V32.2
		c0-1.3,2.3-2.9,5.3-2.9h10.1v-6H14.7c-6.4,0-11.3,3.9-11.3,8.9v26.6c0,5,5,8.9,11.3,8.9h38.2c6.4,0,11.3-3.9,11.3-8.9V32.2
		C64.3,27.2,59.3,23.3,52.9,23.3z"/>
	<path class="st0" d="M25,15c0.8,0,1.5-0.3,2.1-0.9l3.8-3.8v13v6v11.5c0,1.7,1.3,3,3,3s3-1.3,3-3V29.3v-6V10.1l4,4
		c0.6,0.6,1.4,0.9,2.1,0.9s1.5-0.3,2.1-0.9c1.2-1.2,1.2-3.1,0-4.2l-9-9C35.5,0.3,34.7,0,34,0c0,0,0,0,0,0s0,0,0,0
		c-0.8,0-1.5,0.3-2.1,0.9l-9,9c-1.2,1.2-1.2,3.1,0,4.2C23.4,14.7,24.2,15,25,15z"/>
</g>
</svg>
